<svg width="500" height="500" viewBox="0 0 500 500" fill="none" xmlns="http://www.w3.org/2000/svg">
<path d="M50 78.125C48.2917 78.125 46.875 76.7083 46.875 75V62.5C46.875 60.7917 48.2917 59.375 50 59.375C51.7083 59.375 53.125 60.7917 53.125 62.5V75C53.125 76.7083 51.7083 78.125 50 78.125Z" fill="#292D32"/>
<path d="M73.3333 94H26.6666C19.0833 94 12.1666 88.1667 10.9166 80.7083L5.37496 47.5C4.45829 42.3333 6.99996 35.7083 11.125 32.4167L40 9.29168C45.5833 4.79168 54.375 4.83334 60 9.33334L88.875 32.4167C92.9583 35.7083 95.4583 42.3333 94.6249 47.5L89.0833 80.6667C87.8333 88.0417 80.75 94 73.3333 94ZM49.9583 12.2083C47.75 12.2083 45.5416 12.875 43.9166 14.1667L15.0416 37.3333C12.7083 39.2083 11.0416 43.5417 11.5416 46.5L17.0833 79.6667C17.8333 84.0417 22.2083 87.75 26.6666 87.75H73.3333C77.7916 87.75 82.1666 84.0417 82.9166 79.625L88.4583 46.4583C88.9166 43.5417 87.2499 39.125 84.9583 37.2917L56.0833 14.2083C54.4166 12.875 52.1666 12.2083 49.9583 12.2083Z" fill="#292D32"/>
<path d="M150 55.4166C149.458 55.4166 148.917 55.2916 148.417 55L111.625 33.7083C110.167 32.8333 109.625 30.9166 110.5 29.4166C111.375 27.9166 113.292 27.4166 114.792 28.2916L150 48.6666L185 28.4166C186.5 27.5416 188.417 28.0833 189.292 29.5416C190.167 31.0416 189.625 32.9583 188.167 33.8333L151.625 55C151.083 55.25 150.542 55.4166 150 55.4166Z" fill="#292D32"/>
<path d="M150 93.1667C148.292 93.1667 146.875 91.75 146.875 90.0417V52.25C146.875 50.5417 148.292 49.125 150 49.125C151.708 49.125 153.125 50.5417 153.125 52.25V90.0417C153.125 91.75 151.708 93.1667 150 93.1667Z" fill="#292D32"/>
<path d="M150 94.7917C146.333 94.7917 142.708 94 139.833 92.4167L117.583 80.0417C111.542 76.7083 106.833 68.6667 106.833 61.75V38.2083C106.833 31.2917 111.542 23.2917 117.583 19.9167L139.833 7.58334C145.542 4.41668 154.458 4.41668 160.167 7.58334L182.417 19.9583C188.458 23.2917 193.167 31.3333 193.167 38.25V61.7917C193.167 68.7083 188.458 76.7083 182.417 80.0833L160.167 92.4167C157.292 94 153.667 94.7917 150 94.7917ZM150 11.4583C147.375 11.4583 144.792 12 142.875 13.0417L120.625 25.4167C116.625 27.625 113.083 33.625 113.083 38.2083V61.75C113.083 66.3333 116.625 72.3333 120.625 74.5833L142.875 86.9583C146.667 89.0833 153.333 89.0833 157.125 86.9583L179.375 74.5833C183.375 72.3333 186.917 66.375 186.917 61.75V38.2083C186.917 33.625 183.375 27.625 179.375 25.375L157.125 13C155.208 12 152.625 11.4583 150 11.4583Z" fill="#292D32"/>
<path d="M250.625 80.625C248.917 80.625 247.5 79.2083 247.5 77.5V68.75C247.5 67.0417 248.917 65.625 250.625 65.625C252.333 65.625 253.75 67.0417 253.75 68.75V77.5C253.75 79.2083 252.333 80.625 250.625 80.625Z" fill="#292D32"/>
<path d="M274.583 94.7917H226.667V87.5C226.667 81.1667 231.792 76.0417 238.125 76.0417H263.125C269.458 76.0417 274.583 81.1667 274.583 87.5V94.7917ZM232.917 88.5417H268.333V87.5C268.333 84.625 266 82.2917 263.125 82.2917H238.125C235.25 82.2917 232.917 84.625 232.917 87.5V88.5417V88.5417Z" fill="#292D32"/>
<path d="M275.625 94.7917H225.625C223.917 94.7917 222.5 93.375 222.5 91.6667C222.5 89.9584 223.917 88.5417 225.625 88.5417H275.625C277.333 88.5417 278.75 89.9584 278.75 91.6667C278.75 93.375 277.333 94.7917 275.625 94.7917Z" fill="#292D32"/>
<path d="M276.792 51.8333C275.917 51.8333 275.042 51.4583 274.417 50.75C273.625 49.8333 273.417 48.5417 273.917 47.4583C275.333 44.2083 276.042 40.75 276.042 37.125V24.625C276.042 23.1667 275.792 21.75 275.292 20.25C275.25 20.125 275.208 19.9583 275.167 19.7917C275.042 19.1667 275 18.5417 275 17.9583C275 16.25 276.417 14.8333 278.125 14.8333H280.625C288.083 14.8333 294.167 21.0833 294.167 28.7917C294.167 35.1667 291.542 41.4583 287 46C286.917 46.0833 286.667 46.2917 286.625 46.3333C284.167 48.375 281.375 50.6667 277.625 51.7083C277.333 51.7917 277.083 51.8333 276.792 51.8333ZM282 21.2083C282.208 22.3333 282.292 23.5 282.292 24.625V37.125C282.292 38.8333 282.167 40.4583 281.917 42.125C282.167 41.9167 282.375 41.75 282.625 41.5417C285.958 38.2083 287.917 33.5417 287.917 28.7917C287.917 25.0417 285.375 21.875 282 21.2083Z" fill="#292D32"/>
<path d="M223.25 51.6667C222.917 51.6667 222.625 51.625 222.292 51.5C218.875 50.4167 215.667 48.4167 213 45.75C208.208 40.4583 205.833 34.6667 205.833 28.5417C205.833 20.9583 211.792 15 219.375 15H222.083C223.125 15 224.125 15.5417 224.708 16.4167C225.292 17.2917 225.375 18.4167 224.958 19.375C224.292 20.875 223.958 22.5833 223.958 24.375V36.875C223.958 40.4583 224.667 43.9583 226.125 47.2917C226.625 48.4167 226.375 49.7083 225.583 50.625C224.958 51.2917 224.125 51.6667 223.25 51.6667ZM217.917 21.375C214.542 22.0417 212.083 24.9583 212.083 28.5417C212.083 33.0833 213.917 37.4583 217.542 41.4583C217.708 41.6667 217.917 41.8333 218.125 42C217.833 40.2917 217.708 38.5833 217.708 36.875V24.375C217.708 23.375 217.792 22.375 217.917 21.375Z" fill="#292D32"/>
<path d="M250 69.7917C232.208 69.7917 217.708 55.2917 217.708 37.5V25C217.708 14.0833 226.583 5.20834 237.5 5.20834L262.5 5.20834C273.417 5.20834 282.292 14.0833 282.292 25V37.5C282.292 55.2917 267.792 69.7917 250 69.7917ZM237.5 11.4583C230.042 11.4583 223.958 17.5417 223.958 25V37.5C223.958 51.875 235.625 63.5417 250 63.5417C264.375 63.5417 276.042 51.875 276.042 37.5V25C276.042 17.5417 269.958 11.4583 262.5 11.4583L237.5 11.4583Z" fill="#292D32"/>
<path d="M341.625 94.7917C340.792 94.7917 340.125 94.625 339.625 94.4167C337.958 93.7917 335.125 91.75 335.125 85.2917V58.4167H325.375C319.792 58.4167 317.792 55.7917 317.083 54.25C316.375 52.6667 315.75 49.4583 319.417 45.25L350.958 9.41666C355.208 4.58333 358.667 4.91666 360.333 5.54166C362 6.16666 364.833 8.20833 364.833 14.6667V41.5417H374.583C380.167 41.5417 382.167 44.1667 382.875 45.7083C383.583 47.2917 384.208 50.5 380.542 54.7083L349 90.5417C346.042 93.9167 343.458 94.7917 341.625 94.7917ZM358.042 11.4167C357.917 11.5833 357.042 12 355.667 13.5833L324.125 49.4167C322.958 50.75 322.792 51.5833 322.792 51.75C322.875 51.7917 323.625 52.2083 325.375 52.2083H338.25C339.958 52.2083 341.375 53.625 341.375 55.3333V85.3333C341.375 87.4167 341.75 88.3333 341.917 88.5833C342.042 88.4167 342.917 88 344.292 86.4167L375.833 50.5833C377 49.25 377.167 48.4167 377.167 48.25C377.083 48.2083 376.333 47.7917 374.583 47.7917H361.708C360 47.7917 358.583 46.375 358.583 44.6667V14.6667C358.625 12.5833 358.208 11.7083 358.042 11.4167Z" fill="#292D32"/>
<path d="M437.5 73.9582C437.083 73.9582 436.708 73.8749 436.292 73.7082C435.125 73.2499 434.375 72.0832 434.375 70.8332V45.8332C434.375 44.1249 435.792 42.7082 437.5 42.7082C439.208 42.7082 440.625 44.1249 440.625 45.8332V63.2915L443.625 60.2915C444.833 59.0832 446.833 59.0832 448.042 60.2915C449.25 61.4999 449.25 63.4999 448.042 64.7082L439.708 73.0415C439.125 73.6249 438.292 73.9582 437.5 73.9582Z" fill="#0077B6"/>
<path d="M437.5 73.9583C436.708 73.9583 435.917 73.6666 435.292 73.0416L426.958 64.7083C425.75 63.5 425.75 61.5 426.958 60.2916C428.167 59.0833 430.167 59.0833 431.375 60.2916L439.708 68.625C440.917 69.8333 440.917 71.8333 439.708 73.0416C439.083 73.6666 438.292 73.9583 437.5 73.9583Z" fill="#0077B6"/>
<path d="M462.5 94.7915H437.5C414.875 94.7915 405.208 85.1249 405.208 62.4999V37.4999C405.208 14.8749 414.875 5.20819 437.5 5.20819H458.333C460.042 5.20819 461.458 6.62486 461.458 8.33319C461.458 10.0415 460.042 11.4582 458.333 11.4582H437.5C418.292 11.4582 411.458 18.2915 411.458 37.4999V62.4999C411.458 81.7082 418.292 88.5415 437.5 88.5415H462.5C481.708 88.5415 488.542 81.7082 488.542 62.4999V41.6665C488.542 39.9582 489.958 38.5415 491.667 38.5415C493.375 38.5415 494.792 39.9582 494.792 41.6665V62.4999C494.792 85.1249 485.125 94.7915 462.5 94.7915Z" fill="#0077B6"/>
<path d="M491.667 44.7917H475C460.75 44.7917 455.208 39.25 455.208 25V8.33336C455.208 7.08336 455.958 5.91669 457.125 5.45836C458.292 4.95836 459.625 5.25002 460.542 6.12502L493.875 39.4584C494.75 40.3334 495.042 41.7084 494.542 42.875C494.042 44.0417 492.917 44.7917 491.667 44.7917ZM461.458 15.875V25C461.458 35.75 464.25 38.5417 475 38.5417H484.125L461.458 15.875Z" fill="#0077B6"/>
<path d="M185.292 108.333H114.708C113.915 108.322 113.127 108.468 112.39 108.761C111.653 109.055 110.98 109.49 110.412 110.044C109.843 110.597 109.389 111.257 109.075 111.986C108.761 112.715 108.594 113.498 108.583 114.292V185.708C108.594 186.502 108.761 187.285 109.075 188.014C109.389 188.743 109.843 189.403 110.412 189.956C110.98 190.509 111.653 190.945 112.39 191.239C113.127 191.532 113.915 191.678 114.708 191.667H185.292C186.085 191.678 186.873 191.532 187.61 191.239C188.347 190.945 189.02 190.509 189.588 189.956C190.157 189.403 190.611 188.743 190.925 188.014C191.239 187.285 191.406 186.502 191.417 185.708V114.292C191.406 113.498 191.239 112.715 190.925 111.986C190.611 111.257 190.157 110.597 189.588 110.044C189.02 109.49 188.347 109.055 187.61 108.761C186.873 108.468 186.085 108.322 185.292 108.333V108.333ZM133.708 178.083H121.208V140.583H133.708V178.083ZM127.458 135.333C125.734 135.333 124.081 134.648 122.862 133.429C121.643 132.21 120.958 130.557 120.958 128.833C120.958 127.109 121.643 125.456 122.862 124.237C124.081 123.018 125.734 122.333 127.458 122.333C128.374 122.229 129.301 122.32 130.179 122.599C131.057 122.879 131.866 123.34 132.553 123.954C133.24 124.568 133.79 125.319 134.166 126.16C134.543 127.001 134.737 127.912 134.737 128.833C134.737 129.755 134.543 130.665 134.166 131.506C133.79 132.347 133.24 133.099 132.553 133.713C131.866 134.326 131.057 134.788 130.179 135.067C129.301 135.346 128.374 135.437 127.458 135.333V135.333ZM178.792 178.083H166.292V157.958C166.292 152.917 164.5 149.625 159.958 149.625C158.553 149.635 157.184 150.076 156.037 150.888C154.889 151.7 154.019 152.844 153.542 154.167C153.216 155.146 153.074 156.177 153.125 157.208V178.042H140.625C140.625 178.042 140.625 143.958 140.625 140.542H153.125V145.833C154.261 143.863 155.912 142.24 157.902 141.138C159.892 140.037 162.144 139.499 164.417 139.583C172.75 139.583 178.792 144.958 178.792 156.5V178.083Z" fill="#0077B6"/>
<path d="M72.25 122.75C71.2611 122.75 70.2944 123.043 69.4722 123.593C68.6499 124.142 68.009 124.923 67.6306 125.837C67.2522 126.75 67.1532 127.756 67.3461 128.725C67.539 129.695 68.0152 130.586 68.7145 131.286C69.4137 131.985 70.3047 132.461 71.2746 132.654C72.2445 132.847 73.2498 132.748 74.1634 132.369C75.0771 131.991 75.8579 131.35 76.4074 130.528C76.9568 129.706 77.25 128.739 77.25 127.75C77.25 126.424 76.7232 125.152 75.7855 124.214C74.8479 123.277 73.5761 122.75 72.25 122.75V122.75ZM91.4167 132.833C91.3356 129.376 90.6882 125.956 89.5 122.708C88.4406 119.93 86.7916 117.414 84.6667 115.333C82.6034 113.198 80.0815 111.559 77.2917 110.542C74.0527 109.317 70.6285 108.655 67.1667 108.583C62.75 108.333 61.3333 108.333 50 108.333C38.6667 108.333 37.25 108.333 32.8333 108.583C29.3715 108.655 25.9473 109.317 22.7083 110.542C19.9237 111.569 17.4039 113.206 15.3333 115.333C13.1976 117.397 11.5591 119.918 10.5417 122.708C9.31735 125.947 8.65505 129.371 8.58334 132.833C8.33334 137.25 8.33334 138.667 8.33334 150C8.33334 161.333 8.33334 162.75 8.58334 167.167C8.65505 170.629 9.31735 174.053 10.5417 177.292C11.5591 180.081 13.1976 182.603 15.3333 184.667C17.4039 186.793 19.9237 188.431 22.7083 189.458C25.9473 190.683 29.3715 191.345 32.8333 191.417C37.25 191.667 38.6667 191.667 50 191.667C61.3333 191.667 62.75 191.667 67.1667 191.417C70.6285 191.345 74.0527 190.683 77.2917 189.458C80.0815 188.441 82.6034 186.802 84.6667 184.667C86.801 182.594 88.4514 180.076 89.5 177.292C90.6882 174.044 91.3356 170.624 91.4167 167.167C91.4167 162.75 91.6667 161.333 91.6667 150C91.6667 138.667 91.6667 137.25 91.4167 132.833V132.833ZM83.9167 166.667C83.8863 169.312 83.4073 171.932 82.5 174.417C81.8347 176.23 80.7662 177.868 79.375 179.208C78.0235 180.585 76.3884 181.652 74.5833 182.333C72.0988 183.241 69.4782 183.72 66.8333 183.75C62.6667 183.958 61.125 184 50.1667 184C39.2083 184 37.6667 184 33.5 183.75C30.7537 183.801 28.0192 183.379 25.4167 182.5C23.6908 181.784 22.1307 180.72 20.8333 179.375C19.4504 178.036 18.3952 176.397 17.75 174.583C16.7327 172.063 16.1685 169.383 16.0833 166.667C16.0833 162.5 15.8333 160.958 15.8333 150C15.8333 139.042 15.8333 137.5 16.0833 133.333C16.102 130.629 16.5956 127.95 17.5417 125.417C18.2752 123.658 19.4011 122.09 20.8333 120.833C22.0992 119.401 23.6637 118.263 25.4167 117.5C27.9565 116.583 30.6333 116.104 33.3333 116.083C37.5 116.083 39.0417 115.833 50 115.833C60.9583 115.833 62.5 115.833 66.6667 116.083C69.3116 116.114 71.9321 116.593 74.4167 117.5C76.3101 118.203 78.0096 119.345 79.375 120.833C80.7404 122.113 81.8073 123.678 82.5 125.417C83.4261 127.954 83.9054 130.632 83.9167 133.333C84.125 137.5 84.1667 139.042 84.1667 150C84.1667 160.958 84.125 162.5 83.9167 166.667ZM50 128.625C45.7742 128.633 41.6457 129.894 38.1361 132.248C34.6265 134.601 31.8933 137.942 30.2818 141.849C28.6704 145.755 28.253 150.052 29.0825 154.196C29.9119 158.339 31.951 162.144 34.942 165.129C37.933 168.114 41.7417 170.146 45.8869 170.967C50.0321 171.789 54.3278 171.363 58.2311 169.744C62.1345 168.125 65.4703 165.385 67.8172 161.871C70.1641 158.357 71.4167 154.226 71.4167 150C71.4222 147.188 70.8717 144.403 69.7968 141.804C68.722 139.205 67.144 136.845 65.1536 134.859C63.1633 132.872 60.7998 131.299 58.1992 130.229C55.5985 129.159 52.8121 128.614 50 128.625V128.625ZM50 163.875C47.2558 163.875 44.5732 163.061 42.2915 161.537C40.0097 160.012 38.2313 157.845 37.1812 155.31C36.131 152.774 35.8562 149.985 36.3916 147.293C36.927 144.602 38.2484 142.129 40.1889 140.189C42.1294 138.248 44.6016 136.927 47.2931 136.392C49.9846 135.856 52.7744 136.131 55.3097 137.181C57.8451 138.231 60.012 140.01 61.5367 142.291C63.0613 144.573 63.875 147.256 63.875 150C63.875 151.822 63.5161 153.626 62.8188 155.31C62.1216 156.993 61.0995 158.523 59.8111 159.811C58.5227 161.099 56.9931 162.122 55.3097 162.819C53.6263 163.516 51.8221 163.875 50 163.875V163.875Z" fill="#0077B6"/>
<path d="M262.5 194.792H237.5C214.875 194.792 205.208 185.125 205.208 162.5V137.5C205.208 114.875 214.875 105.208 237.5 105.208H262.5C285.125 105.208 294.792 114.875 294.792 137.5V162.5C294.792 185.125 285.125 194.792 262.5 194.792ZM237.5 111.458C218.292 111.458 211.458 118.292 211.458 137.5V162.5C211.458 181.708 218.292 188.542 237.5 188.542H262.5C281.708 188.542 288.542 181.708 288.542 162.5V137.5C288.542 118.292 281.708 111.458 262.5 111.458H237.5Z" fill="#292D32"/>
<path d="M240 165.75C239.208 165.75 238.417 165.459 237.792 164.834L227.417 154.459C224.958 152 224.958 148.042 227.417 145.583L237.792 135.208C239 134 241 134 242.208 135.208C243.417 136.417 243.417 138.417 242.208 139.625L231.833 150L242.208 160.417C243.417 161.625 243.417 163.625 242.208 164.834C241.583 165.417 240.792 165.75 240 165.75Z" fill="#292D32"/>
<path d="M260 165.75C259.208 165.75 258.417 165.458 257.792 164.833C256.583 163.625 256.583 161.625 257.792 160.417L268.167 150L257.792 139.583C256.583 138.375 256.583 136.375 257.792 135.167C259 133.958 261 133.958 262.208 135.167L272.583 145.542C275.042 148 275.042 151.958 272.583 154.417L262.208 164.792C261.625 165.417 260.792 165.75 260 165.75Z" fill="#292D32"/>
<path d="M354.167 148.958C353.375 148.958 352.583 148.667 351.958 148.042C350.75 146.833 350.75 144.833 351.958 143.625L386.125 109.458C387.333 108.25 389.333 108.25 390.542 109.458C391.75 110.667 391.75 112.667 390.542 113.875L356.375 148.042C355.75 148.667 354.958 148.958 354.167 148.958Z" fill="#292D32"/>
<path d="M391.667 131.458C389.958 131.458 388.542 130.042 388.542 128.333V111.458H371.667C369.958 111.458 368.542 110.042 368.542 108.333C368.542 106.625 369.958 105.208 371.667 105.208H391.667C393.375 105.208 394.792 106.625 394.792 108.333V128.333C394.792 130.042 393.375 131.458 391.667 131.458Z" fill="#292D32"/>
<path d="M362.5 194.792H337.5C314.875 194.792 305.208 185.125 305.208 162.5V137.5C305.208 114.875 314.875 105.208 337.5 105.208H345.833C347.542 105.208 348.958 106.625 348.958 108.333C348.958 110.042 347.542 111.458 345.833 111.458H337.5C318.292 111.458 311.458 118.292 311.458 137.5V162.5C311.458 181.708 318.292 188.542 337.5 188.542H362.5C381.708 188.542 388.542 181.708 388.542 162.5V154.167C388.542 152.458 389.958 151.042 391.667 151.042C393.375 151.042 394.792 152.458 394.792 154.167V162.5C394.792 185.125 385.125 194.792 362.5 194.792Z" fill="#292D32"/>
<path d="M450 194.792C425.292 194.792 405.208 174.708 405.208 150C405.208 125.292 425.292 105.208 450 105.208C474.708 105.208 494.792 125.292 494.792 150C494.792 174.708 474.708 194.792 450 194.792ZM450 111.458C428.75 111.458 411.458 128.75 411.458 150C411.458 171.25 428.75 188.542 450 188.542C471.25 188.542 488.542 171.25 488.542 150C488.542 128.75 471.25 111.458 450 111.458Z" fill="#0077B6"/>
<path d="M444.083 164.917C443.25 164.917 442.458 164.583 441.875 164L430.083 152.208C428.875 151 428.875 149 430.083 147.792C431.292 146.583 433.292 146.583 434.5 147.792L444.083 157.375L465.5 135.958C466.708 134.75 468.708 134.75 469.917 135.958C471.125 137.167 471.125 139.167 469.917 140.375L446.292 164C445.708 164.583 444.917 164.917 444.083 164.917Z" fill="#0077B6"/>
</svg>
