<svg id="Layer_1" data-name="Layer 1" xmlns="http://www.w3.org/2000/svg" viewBox="0 0 512 512"><defs><style>.cls-1{fill:#ffab00;}.cls-2{fill:#1b1b1b;}.cls-3{fill:#febc12;}.cls-4{fill:#fc8400;}.cls-10,.cls-11,.cls-5,.cls-6,.cls-7,.cls-8,.cls-9{fill:none;stroke:#434343;stroke-miterlimit:10;}.cls-6{stroke-dasharray:8.25 4.12;}.cls-7{stroke-dasharray:7.55 3.78;}.cls-8{stroke-dasharray:7.4 3.7;}.cls-9{stroke-dasharray:8.49 4.24;}.cls-10{stroke-dasharray:8.11 4.05;}.cls-11{stroke-dasharray:7.96 3.98;}.cls-12{fill:#434343;}.cls-13{fill:#fff;}</style></defs><title>rexballs</title><rect id="Background" width="512" height="512"/><g id="Rexensoft"><path class="cls-1" d="M265.61,67.91a187.55,187.55,0,0,0-161.44,92l-.24.48c-3,5-5.68,10.24-8.24,15.6l-.4.8c0,.08-.08.16-.16.24-.32.72-.64,1.36-1,2.08a184.9,184.9,0,0,0-15.52,60.32c0,.16-.08.4-.08.56-.08.4-.08.88-.16,1.28-.24,2.88-.32,5.68-.4,8.56v.24c0,1.84-.08,3.6-.08,5.52,0,103.6,84,187.6,187.6,187.6s187.6-84,187.6-187.6S369.29,67.91,265.61,67.91Zm-151,117.44v12.48H102.17V185.35Z"/><path class="cls-2" d="M268.41,101.67a156.66,156.66,0,0,0-126.08,58.72h-38.4c-3,5-5.68,10.24-8.24,15.6l-.4.8c0,.08-.08.16-.16.24-.32.72-.64,1.36-1,2.08h67l.08.08v24.72a.08.08,0,0,1-.08.08h-43.6c-.08,0-.08,0-.08.08h0c-.32,12.4-.08,23.52,0,35.12,0,.08,0,.08-.08.08h-43l-.08.08c-.24,3.44-.48,6.8-.56,10.16,0,.08,0,.08.08.08h83.12c.08,0,.08,0,.08.08h0v27c0,.08,0,.08-.08.08H92a.08.08,0,0,0-.08.08h0v28.88a.08.08,0,0,0,.08.08h25a.08.08,0,0,1,.08.08h0c1,2.88,2.08,5.68,3.2,8.4,23.28,56.4,79.36,96.16,144.8,96.16,87.68,0,158.48-71.2,156.32-158.24C419.45,170.23,351.53,103.35,268.41,101.67ZM195.77,278.79c0,.08,0,.08-.08.08H166.81c-.08,0-.08,0-.08-.08h0V249.91c0-.08,0-.08.08-.08h28.88c.08,0,.08,0,.08.08h0v28.88Zm8.32-66.48a.08.08,0,0,1-.08.08H191.77a.08.08,0,0,1-.08-.08h0V200.07a.08.08,0,0,1,.08-.08H204a.08.08,0,0,1,.08.08h0Zm66.48,147.52c0,.08,0,.08-.08.08h-8.08a.08.08,0,0,1-.08-.08h0v-8.08a.08.08,0,0,1,.08-.08h8.08c.08,0,.08,0,.08.08h0Zm22.88-14.48c0,.08,0,.08-.08.08H264.49c-.08,0-.08,0-.08-.08h0V316.47a.08.08,0,0,1,.08-.08h28.88a.08.08,0,0,1,.08.08h0Zm10.4-170.48a.08.08,0,0,1-.08.08H291.53a.08.08,0,0,1-.08-.08h0V162.63a.08.08,0,0,1,.08-.08h12.24a.08.08,0,0,1,.08.08h0Zm22.88,143.44c0,.08,0,.08-.08.08H312.33c-.08,0-.08,0-.08-.08h0v-14.4c0-.08,0-.08.08-.08h14.32c.08,0,.08,0,.08.08h0Zm0-162.16c0,.08,0,.08-.08.08h-16.4c-.08,0-.08,0-.08-.08h0v-16.4a.08.08,0,0,1,.08-.08h16.4a.08.08,0,0,1,.08.08h0ZM389,249.83H376.73c-.08,0-.08,0-.08-.08h0V237.43c0-.08,0-.08.08-.08H389c.08,0,.08,0,.08.08h0v12.24c.08.08,0,.08-.08.16Z"/><polygon class="cls-3" points="212.41 318.31 212.41 318.39 212.33 318.39 212.41 318.31"/><g id="Football"><ellipse id="background-footbal" class="cls-1" cx="263.75" cy="255.63" rx="139.05" ry="139.27"/><path id="shadow-footbal" class="cls-4" d="M402.8,255.62c0,76.93-62.26,139.28-139,139.28A138.68,138.68,0,0,1,154.67,342a142.53,142.53,0,0,0,86.13,28.6c77,0,139.5-60,139.5-134.1,0-41.87-20-79.25-51.23-103.84A139.24,139.24,0,0,1,402.8,255.62Z"/><g id="line-footbal"><path class="cls-5" d="M158.9,246.4l3.92-.77"/><path class="cls-6" d="M166.87,244.85c9.67-1.83,25.78-4.76,34.6-5.63"/><path class="cls-5" d="M203.53,239a10.64,10.64,0,0,1,4,.16"/><path class="cls-5" d="M242.6,279.7s-.23,1.48-.63,3.95"/><path class="cls-7" d="M241.38,287.37c-1.86,11.46-5.4,32.75-7.7,42.74"/><path class="cls-5" d="M233.24,332c-.63,2.48-1.14,3.85-1.44,3.55"/><path class="cls-5" d="M293,258.1l3.25,2.33"/><path class="cls-8" d="M299.26,262.57c9.29,6.59,26.56,18.69,35.27,23.81"/><path class="cls-5" d="M336.14,287.3c2.05,1.13,3.38,1.68,3.66,1.4"/><line class="cls-5" x1="289.4" y1="204.1" x2="292.68" y2="201.82"/><line class="cls-9" x1="296.17" y1="199.39" x2="325.77" y2="178.8"/><line class="cls-5" x1="327.52" y1="177.58" x2="330.8" y2="175.3"/><path class="cls-5" d="M219.2,148.3a17.89,17.89,0,0,0,1,3.87"/><path class="cls-10" d="M221.47,156c2,5.7,5.91,15.42,13.25,31.79"/><path class="cls-5" d="M235.55,189.66c.53,1.18,1.08,2.39,1.65,3.64"/><circle class="cls-11" cx="257.9" cy="244.6" r="119.7"/></g><g id="patern-footbal"><path class="cls-12" d="M128.76,290.5s14.61,10.8,21.91,5.4c1.83-12.6,5.73-44.57,9.13-46.8l-16.43-37.8-14.61,12.6S119.63,249.1,128.76,290.5Z"/><path class="cls-12" d="M177.8,146.5v10.8s37.8-9,41.4-5.4c0,0,10.8-16.2,34.2-27,0,0,5.4-1.8-7.2-7.2C246.2,117.7,207.5,120.4,177.8,146.5Z"/><path class="cls-12" d="M338,139.3H316.4s14.4,32.4,14.4,37.8c0,0,14.4,3.6,41.4,27,0,0,3.6,5.4,12.6-16.2C383.9,179.8,349.7,140.2,338,139.3Z"/><path class="cls-12" d="M368.39,344.5s-33.83,1.8-37.59-5.4c0,0,5.64-19.8,7.52-50.4,0,0,31.95-16.2,37.59-23.4,0,0,9.39,0,18.79,37.8C389.3,316.6,376.25,344.07,368.39,344.5Z"/><path class="cls-12" d="M203,380.5s-18-30.6-14.4-37.8c0,0,37.8-7.2,43.2-9,0,0,34.2,27,41.4,27,0,0,5.4,7.2-18,32.4C247.1,397.6,207.5,385,203,380.5Z"/><path class="cls-12" d="M206.6,238.3s23.4-43.2,28.8-45,48.6,7.2,55.8,10.8l3.6,54-52.2,21.6Z"/></g></g><rect class="cls-13" x="48.17" y="152.07" width="145.52" height="12.48"/><rect class="cls-13" x="237.37" y="201.99" width="155.92" height="12.48"/><rect class="cls-13" x="209.34" y="146.41" width="12.48" height="74.56" transform="translate(-66.74 206.24) rotate(-45)"/><path class="cls-13" d="M26.89,141.67h28a1.6,1.6,0,0,1,1.6,1.6v28a1.6,1.6,0,0,1-1.6,1.6h-28a1.6,1.6,0,0,1-1.6-1.6v-28A1.6,1.6,0,0,1,26.89,141.67Z"/><rect class="cls-13" x="48.17" y="305.99" width="145.52" height="12.48"/><rect class="cls-13" x="237.37" y="256.07" width="236.32" height="12.48"/><rect class="cls-13" x="178.28" y="280.62" width="74.56" height="12.48" transform="translate(-139.7 236.45) rotate(-45)"/><path class="cls-13" d="M470.49,246.71h28a1.6,1.6,0,0,1,1.6,1.6v28a1.6,1.6,0,0,1-1.6,1.6h-28a1.6,1.6,0,0,1-1.6-1.6v-28A1.6,1.6,0,0,1,470.49,246.71Z"/><rect class="cls-13" x="20.73" y="226.95" width="291.44" height="12.48"/><polygon class="cls-13" points="10.33 313.27 54.73 338.87 54.73 287.67 10.33 313.27"/><polygon class="cls-13" points="139.05 313.27 166.49 329.11 166.49 297.43 139.05 313.27"/><polygon class="cls-13" points="319.45 262.31 346.89 278.15 346.89 246.47 319.45 262.31"/><polygon class="cls-13" points="228.49 197.83 224.09 166.47 199.13 185.91 228.49 197.83"/><polygon class="cls-13" points="432.33 206.15 387.93 180.55 387.93 231.75 432.33 206.15"/></g></svg>