<svg width="466" height="170" viewBox="0 0 466 170" fill="none" xmlns="http://www.w3.org/2000/svg">
<g clip-path="url(#clip0_272_734)">
<path d="M1.39872e-05 103.958C8.96204 85.4422 17.996 67.2137 27.2875 65.1844C39.5842 62.1563 52.0792 90.8438 64.475 90.6844C77.1684 90.8438 89.7625 62.1563 102.158 70.8156C114.753 79.1563 127.446 124.844 139.842 124.684C152.337 124.844 164.633 79.1563 177.525 76.5C189.871 73.8438 202.317 113.156 214.713 116.184C227.455 119 240 85 252.396 70.8156C265.04 56.8438 277.683 62.1563 290.079 73.6844C302.624 85 315.367 102 327.763 90.6844C340.208 79.1563 352.554 39.8438 365.446 31.1844C377.792 22.8438 390.238 45.1563 402.633 53.8156C415.376 62.1563 427.921 56.8438 440.317 68C452.96 79.1563 459.5 96 466 109.5V136.5V170H462.5C456.203 170 452.713 170 440.317 170C427.871 170 415.525 170 402.633 170C390.337 170 377.842 170 365.446 170C352.753 170 340.158 170 327.763 170C315.168 170 302.475 170 290.079 170C277.584 170 265.288 170 252.396 170C240 170 227.604 170 214.713 170C202.416 170 189.921 170 177.525 170C164.832 170 152.238 170 139.842 170C127.248 170 114.554 170 102.158 170C89.6634 170 77.3667 170 64.475 170C52.1288 170 39.6834 170 27.2875 170C18.0947 170 9.00504 170 1.39872e-05 170C-9.15527e-05 136.979 1.39872e-05 103.958 1.39872e-05 103.958Z" fill="url(#paint0_linear_272_734)"/>
</g>
<defs>
<linearGradient id="paint0_linear_272_734" x1="121" y1="17" x2="121" y2="170" gradientUnits="userSpaceOnUse">
<stop stop-color="#CFF4FB" stop-opacity="0"/>
<stop offset="1" stop-color="#90E0EF" stop-opacity="0.25"/>
</linearGradient>
<clipPath id="clip0_272_734">
<rect width="466" height="170" fill="white"/>
</clipPath>
</defs>
</svg>
